<mxfile host="app.diagrams.net" modified="2023-07-18T02:50:47.866Z" agent="Mozilla/5.0 (Windows NT 10.0; Win64; x64) AppleWebKit/537.36 (KHTML, like Gecko) Chrome/114.0.0.0 Safari/537.36" etag="hmhZIBlaxamIBazyHCRG" version="21.6.2" type="device">
  <diagram id="R2lEEEUBdFMjLlhIrx00" name="Page-1">
    <mxGraphModel dx="1434" dy="768" grid="1" gridSize="10" guides="1" tooltips="1" connect="1" arrows="1" fold="1" page="1" pageScale="1" pageWidth="850" pageHeight="1100" math="0" shadow="0" extFonts="Permanent Marker^https://fonts.googleapis.com/css?family=Permanent+Marker">
      <root>
        <mxCell id="0" />
        <mxCell id="1" parent="0" />
        <mxCell id="02KtrUgMNeAOrGU4ToPw-22" style="edgeStyle=orthogonalEdgeStyle;rounded=0;orthogonalLoop=1;jettySize=auto;html=1;exitX=0.5;exitY=1;exitDx=0;exitDy=0;entryX=0.5;entryY=0;entryDx=0;entryDy=0;" edge="1" parent="1" source="02KtrUgMNeAOrGU4ToPw-2" target="02KtrUgMNeAOrGU4ToPw-20">
          <mxGeometry relative="1" as="geometry" />
        </mxCell>
        <mxCell id="02KtrUgMNeAOrGU4ToPw-2" value="Mascota" style="rounded=0;whiteSpace=wrap;html=1;" vertex="1" parent="1">
          <mxGeometry x="470" y="470" width="120" height="60" as="geometry" />
        </mxCell>
        <mxCell id="02KtrUgMNeAOrGU4ToPw-37" style="edgeStyle=orthogonalEdgeStyle;rounded=0;orthogonalLoop=1;jettySize=auto;html=1;exitX=0.5;exitY=0;exitDx=0;exitDy=0;entryX=0.5;entryY=1;entryDx=0;entryDy=0;" edge="1" parent="1" source="02KtrUgMNeAOrGU4ToPw-3" target="02KtrUgMNeAOrGU4ToPw-35">
          <mxGeometry relative="1" as="geometry" />
        </mxCell>
        <mxCell id="02KtrUgMNeAOrGU4ToPw-3" value="Servicio veterinario" style="rounded=0;whiteSpace=wrap;html=1;" vertex="1" parent="1">
          <mxGeometry x="180" y="470" width="120" height="60" as="geometry" />
        </mxCell>
        <mxCell id="02KtrUgMNeAOrGU4ToPw-4" value="Entra" style="rhombus;whiteSpace=wrap;html=1;" vertex="1" parent="1">
          <mxGeometry x="350" y="460" width="80" height="80" as="geometry" />
        </mxCell>
        <mxCell id="02KtrUgMNeAOrGU4ToPw-6" value="" style="curved=1;endArrow=classic;html=1;rounded=0;exitX=0;exitY=0.5;exitDx=0;exitDy=0;entryX=1;entryY=0.5;entryDx=0;entryDy=0;" edge="1" parent="1" source="02KtrUgMNeAOrGU4ToPw-2" target="02KtrUgMNeAOrGU4ToPw-4">
          <mxGeometry width="50" height="50" relative="1" as="geometry">
            <mxPoint x="340" y="580" as="sourcePoint" />
            <mxPoint x="390" y="530" as="targetPoint" />
            <Array as="points">
              <mxPoint x="450" y="500" />
            </Array>
          </mxGeometry>
        </mxCell>
        <mxCell id="02KtrUgMNeAOrGU4ToPw-7" value="" style="curved=1;endArrow=classic;html=1;rounded=0;exitX=0;exitY=0.5;exitDx=0;exitDy=0;entryX=1;entryY=0.5;entryDx=0;entryDy=0;" edge="1" parent="1">
          <mxGeometry width="50" height="50" relative="1" as="geometry">
            <mxPoint x="351" y="500" as="sourcePoint" />
            <mxPoint x="311" y="500" as="targetPoint" />
            <Array as="points">
              <mxPoint x="331" y="500" />
            </Array>
          </mxGeometry>
        </mxCell>
        <mxCell id="02KtrUgMNeAOrGU4ToPw-8" value="N :1" style="text;html=1;strokeColor=none;fillColor=none;align=center;verticalAlign=middle;whiteSpace=wrap;rounded=0;" vertex="1" parent="1">
          <mxGeometry x="360" y="410" width="60" height="30" as="geometry" />
        </mxCell>
        <mxCell id="02KtrUgMNeAOrGU4ToPw-9" value="*" style="text;html=1;strokeColor=none;fillColor=none;align=center;verticalAlign=middle;whiteSpace=wrap;rounded=0;" vertex="1" parent="1">
          <mxGeometry x="290" y="470" width="60" height="30" as="geometry" />
        </mxCell>
        <mxCell id="02KtrUgMNeAOrGU4ToPw-10" value="1" style="text;html=1;strokeColor=none;fillColor=none;align=center;verticalAlign=middle;whiteSpace=wrap;rounded=0;" vertex="1" parent="1">
          <mxGeometry x="410" y="470" width="60" height="30" as="geometry" />
        </mxCell>
        <mxCell id="02KtrUgMNeAOrGU4ToPw-11" value="Nombre" style="ellipse;whiteSpace=wrap;html=1;" vertex="1" parent="1">
          <mxGeometry x="470" y="370" width="85" height="40" as="geometry" />
        </mxCell>
        <mxCell id="02KtrUgMNeAOrGU4ToPw-12" value="Tipo" style="ellipse;whiteSpace=wrap;html=1;" vertex="1" parent="1">
          <mxGeometry x="570" y="370" width="85" height="40" as="geometry" />
        </mxCell>
        <mxCell id="02KtrUgMNeAOrGU4ToPw-13" value="Raza" style="ellipse;whiteSpace=wrap;html=1;" vertex="1" parent="1">
          <mxGeometry x="670" y="370" width="85" height="40" as="geometry" />
        </mxCell>
        <mxCell id="02KtrUgMNeAOrGU4ToPw-14" value="Edad" style="ellipse;whiteSpace=wrap;html=1;" vertex="1" parent="1">
          <mxGeometry x="680" y="430" width="85" height="40" as="geometry" />
        </mxCell>
        <mxCell id="02KtrUgMNeAOrGU4ToPw-15" value="" style="endArrow=none;html=1;rounded=0;exitX=0.25;exitY=0;exitDx=0;exitDy=0;entryX=0.365;entryY=1.05;entryDx=0;entryDy=0;entryPerimeter=0;" edge="1" parent="1" source="02KtrUgMNeAOrGU4ToPw-2" target="02KtrUgMNeAOrGU4ToPw-11">
          <mxGeometry width="50" height="50" relative="1" as="geometry">
            <mxPoint x="520" y="580" as="sourcePoint" />
            <mxPoint x="570" y="530" as="targetPoint" />
          </mxGeometry>
        </mxCell>
        <mxCell id="02KtrUgMNeAOrGU4ToPw-16" value="" style="endArrow=none;html=1;rounded=0;exitX=0.442;exitY=0.017;exitDx=0;exitDy=0;exitPerimeter=0;" edge="1" parent="1" source="02KtrUgMNeAOrGU4ToPw-2" target="02KtrUgMNeAOrGU4ToPw-12">
          <mxGeometry width="50" height="50" relative="1" as="geometry">
            <mxPoint x="530" y="460" as="sourcePoint" />
            <mxPoint x="511" y="422" as="targetPoint" />
          </mxGeometry>
        </mxCell>
        <mxCell id="02KtrUgMNeAOrGU4ToPw-17" value="" style="endArrow=none;html=1;rounded=0;entryX=0;entryY=1;entryDx=0;entryDy=0;" edge="1" parent="1" target="02KtrUgMNeAOrGU4ToPw-13">
          <mxGeometry width="50" height="50" relative="1" as="geometry">
            <mxPoint x="550" y="470" as="sourcePoint" />
            <mxPoint x="603" y="418" as="targetPoint" />
          </mxGeometry>
        </mxCell>
        <mxCell id="02KtrUgMNeAOrGU4ToPw-18" value="" style="endArrow=none;html=1;rounded=0;entryX=0;entryY=0.5;entryDx=0;entryDy=0;exitX=1;exitY=0.25;exitDx=0;exitDy=0;" edge="1" parent="1" source="02KtrUgMNeAOrGU4ToPw-2">
          <mxGeometry width="50" height="50" relative="1" as="geometry">
            <mxPoint x="560" y="480" as="sourcePoint" />
            <mxPoint x="680" y="450" as="targetPoint" />
          </mxGeometry>
        </mxCell>
        <mxCell id="02KtrUgMNeAOrGU4ToPw-24" style="edgeStyle=orthogonalEdgeStyle;rounded=0;orthogonalLoop=1;jettySize=auto;html=1;exitX=0.5;exitY=1;exitDx=0;exitDy=0;entryX=0.5;entryY=0;entryDx=0;entryDy=0;" edge="1" parent="1" source="02KtrUgMNeAOrGU4ToPw-20" target="02KtrUgMNeAOrGU4ToPw-23">
          <mxGeometry relative="1" as="geometry" />
        </mxCell>
        <mxCell id="02KtrUgMNeAOrGU4ToPw-20" value="Posee" style="rhombus;whiteSpace=wrap;html=1;" vertex="1" parent="1">
          <mxGeometry x="490" y="580" width="80" height="80" as="geometry" />
        </mxCell>
        <mxCell id="02KtrUgMNeAOrGU4ToPw-32" style="edgeStyle=orthogonalEdgeStyle;rounded=0;orthogonalLoop=1;jettySize=auto;html=1;exitX=1;exitY=0.75;exitDx=0;exitDy=0;entryX=0;entryY=0.5;entryDx=0;entryDy=0;verticalAlign=middle;shape=link;" edge="1" parent="1" source="02KtrUgMNeAOrGU4ToPw-23" target="02KtrUgMNeAOrGU4ToPw-29">
          <mxGeometry relative="1" as="geometry" />
        </mxCell>
        <mxCell id="02KtrUgMNeAOrGU4ToPw-33" style="edgeStyle=orthogonalEdgeStyle;rounded=0;orthogonalLoop=1;jettySize=auto;html=1;exitX=0.5;exitY=1;exitDx=0;exitDy=0;entryX=0.5;entryY=0;entryDx=0;entryDy=0;shape=link;" edge="1" parent="1" source="02KtrUgMNeAOrGU4ToPw-23" target="02KtrUgMNeAOrGU4ToPw-27">
          <mxGeometry relative="1" as="geometry" />
        </mxCell>
        <mxCell id="02KtrUgMNeAOrGU4ToPw-34" style="edgeStyle=orthogonalEdgeStyle;rounded=0;orthogonalLoop=1;jettySize=auto;html=1;exitX=0.75;exitY=1;exitDx=0;exitDy=0;entryX=0.235;entryY=0.05;entryDx=0;entryDy=0;entryPerimeter=0;shape=link;" edge="1" parent="1" source="02KtrUgMNeAOrGU4ToPw-23" target="02KtrUgMNeAOrGU4ToPw-28">
          <mxGeometry relative="1" as="geometry" />
        </mxCell>
        <mxCell id="02KtrUgMNeAOrGU4ToPw-23" value="DueÃ±o" style="rounded=0;whiteSpace=wrap;html=1;" vertex="1" parent="1">
          <mxGeometry x="470" y="690" width="120" height="60" as="geometry" />
        </mxCell>
        <mxCell id="02KtrUgMNeAOrGU4ToPw-25" value="*" style="text;html=1;strokeColor=none;fillColor=none;align=center;verticalAlign=middle;whiteSpace=wrap;rounded=0;" vertex="1" parent="1">
          <mxGeometry x="540" y="540" width="60" height="30" as="geometry" />
        </mxCell>
        <mxCell id="02KtrUgMNeAOrGU4ToPw-26" value="1" style="text;html=1;strokeColor=none;fillColor=none;align=center;verticalAlign=middle;whiteSpace=wrap;rounded=0;" vertex="1" parent="1">
          <mxGeometry x="540" y="660" width="60" height="30" as="geometry" />
        </mxCell>
        <mxCell id="02KtrUgMNeAOrGU4ToPw-27" value="Nombre" style="ellipse;whiteSpace=wrap;html=1;" vertex="1" parent="1">
          <mxGeometry x="485" y="790" width="85" height="40" as="geometry" />
        </mxCell>
        <mxCell id="02KtrUgMNeAOrGU4ToPw-28" value="Cedula" style="ellipse;whiteSpace=wrap;html=1;" vertex="1" parent="1">
          <mxGeometry x="585" y="790" width="85" height="40" as="geometry" />
        </mxCell>
        <mxCell id="02KtrUgMNeAOrGU4ToPw-29" value="Celular" style="ellipse;whiteSpace=wrap;html=1;" vertex="1" parent="1">
          <mxGeometry x="640" y="730" width="85" height="40" as="geometry" />
        </mxCell>
        <mxCell id="02KtrUgMNeAOrGU4ToPw-38" style="edgeStyle=orthogonalEdgeStyle;rounded=0;orthogonalLoop=1;jettySize=auto;html=1;exitX=0.5;exitY=0;exitDx=0;exitDy=0;entryX=0.567;entryY=1.033;entryDx=0;entryDy=0;entryPerimeter=0;" edge="1" parent="1" source="02KtrUgMNeAOrGU4ToPw-35" target="02KtrUgMNeAOrGU4ToPw-36">
          <mxGeometry relative="1" as="geometry" />
        </mxCell>
        <mxCell id="02KtrUgMNeAOrGU4ToPw-35" value="Aplicado por" style="rhombus;whiteSpace=wrap;html=1;" vertex="1" parent="1">
          <mxGeometry x="190" y="350" width="80" height="80" as="geometry" />
        </mxCell>
        <mxCell id="02KtrUgMNeAOrGU4ToPw-36" value="Veterinario" style="rounded=0;whiteSpace=wrap;html=1;" vertex="1" parent="1">
          <mxGeometry x="160" y="240" width="120" height="60" as="geometry" />
        </mxCell>
        <mxCell id="02KtrUgMNeAOrGU4ToPw-39" value="*" style="text;html=1;strokeColor=none;fillColor=none;align=center;verticalAlign=middle;whiteSpace=wrap;rounded=0;" vertex="1" parent="1">
          <mxGeometry x="250" y="440" width="60" height="30" as="geometry" />
        </mxCell>
        <mxCell id="02KtrUgMNeAOrGU4ToPw-40" value="*" style="text;html=1;strokeColor=none;fillColor=none;align=center;verticalAlign=middle;whiteSpace=wrap;rounded=0;" vertex="1" parent="1">
          <mxGeometry x="230" y="310" width="60" height="30" as="geometry" />
        </mxCell>
        <mxCell id="02KtrUgMNeAOrGU4ToPw-41" value="N :N" style="text;html=1;strokeColor=none;fillColor=none;align=center;verticalAlign=middle;whiteSpace=wrap;rounded=0;" vertex="1" parent="1">
          <mxGeometry x="270" y="370" width="60" height="30" as="geometry" />
        </mxCell>
        <mxCell id="02KtrUgMNeAOrGU4ToPw-42" value="N :1" style="text;html=1;strokeColor=none;fillColor=none;align=center;verticalAlign=middle;whiteSpace=wrap;rounded=0;" vertex="1" parent="1">
          <mxGeometry x="580" y="605" width="60" height="30" as="geometry" />
        </mxCell>
        <mxCell id="02KtrUgMNeAOrGU4ToPw-43" value="Medicamentos" style="ellipse;whiteSpace=wrap;html=1;" vertex="1" parent="1">
          <mxGeometry x="250" y="600" width="85" height="40" as="geometry" />
        </mxCell>
        <mxCell id="02KtrUgMNeAOrGU4ToPw-44" value="Examenes" style="ellipse;whiteSpace=wrap;html=1;" vertex="1" parent="1">
          <mxGeometry x="145" y="595" width="85" height="40" as="geometry" />
        </mxCell>
        <mxCell id="02KtrUgMNeAOrGU4ToPw-45" value="Hospitalizacion" style="ellipse;whiteSpace=wrap;html=1;" vertex="1" parent="1">
          <mxGeometry x="40" y="560" width="85" height="40" as="geometry" />
        </mxCell>
        <mxCell id="02KtrUgMNeAOrGU4ToPw-46" value="" style="endArrow=none;html=1;rounded=0;exitX=0.6;exitY=-0.1;exitDx=0;exitDy=0;entryX=0.858;entryY=1.017;entryDx=0;entryDy=0;entryPerimeter=0;exitPerimeter=0;" edge="1" parent="1" source="02KtrUgMNeAOrGU4ToPw-43" target="02KtrUgMNeAOrGU4ToPw-3">
          <mxGeometry width="50" height="50" relative="1" as="geometry">
            <mxPoint x="300" y="588" as="sourcePoint" />
            <mxPoint x="301" y="530" as="targetPoint" />
          </mxGeometry>
        </mxCell>
        <mxCell id="02KtrUgMNeAOrGU4ToPw-47" value="" style="endArrow=none;html=1;rounded=0;exitX=0.729;exitY=0.05;exitDx=0;exitDy=0;entryX=0.325;entryY=1.017;entryDx=0;entryDy=0;entryPerimeter=0;exitPerimeter=0;" edge="1" parent="1" source="02KtrUgMNeAOrGU4ToPw-44" target="02KtrUgMNeAOrGU4ToPw-3">
          <mxGeometry width="50" height="50" relative="1" as="geometry">
            <mxPoint x="218" y="600" as="sourcePoint" />
            <mxPoint x="200" y="535" as="targetPoint" />
          </mxGeometry>
        </mxCell>
        <mxCell id="02KtrUgMNeAOrGU4ToPw-48" value="" style="endArrow=none;html=1;rounded=0;exitX=1;exitY=0;exitDx=0;exitDy=0;entryX=0;entryY=0.75;entryDx=0;entryDy=0;" edge="1" parent="1" source="02KtrUgMNeAOrGU4ToPw-45" target="02KtrUgMNeAOrGU4ToPw-3">
          <mxGeometry width="50" height="50" relative="1" as="geometry">
            <mxPoint x="145" y="580" as="sourcePoint" />
            <mxPoint x="157" y="514" as="targetPoint" />
          </mxGeometry>
        </mxCell>
        <mxCell id="02KtrUgMNeAOrGU4ToPw-58" style="edgeStyle=orthogonalEdgeStyle;rounded=0;orthogonalLoop=1;jettySize=auto;html=1;exitX=1;exitY=1;exitDx=0;exitDy=0;entryX=0;entryY=0.75;entryDx=0;entryDy=0;" edge="1" parent="1" source="02KtrUgMNeAOrGU4ToPw-49" target="02KtrUgMNeAOrGU4ToPw-36">
          <mxGeometry relative="1" as="geometry" />
        </mxCell>
        <mxCell id="02KtrUgMNeAOrGU4ToPw-49" value="Cedula" style="ellipse;whiteSpace=wrap;html=1;" vertex="1" parent="1">
          <mxGeometry x="30" y="250" width="85" height="40" as="geometry" />
        </mxCell>
        <mxCell id="02KtrUgMNeAOrGU4ToPw-57" style="edgeStyle=orthogonalEdgeStyle;rounded=0;orthogonalLoop=1;jettySize=auto;html=1;exitX=1;exitY=0.5;exitDx=0;exitDy=0;entryX=0;entryY=0.25;entryDx=0;entryDy=0;" edge="1" parent="1" source="02KtrUgMNeAOrGU4ToPw-50" target="02KtrUgMNeAOrGU4ToPw-36">
          <mxGeometry relative="1" as="geometry" />
        </mxCell>
        <mxCell id="02KtrUgMNeAOrGU4ToPw-50" value="Profesional" style="ellipse;whiteSpace=wrap;html=1;" vertex="1" parent="1">
          <mxGeometry x="30" y="200" width="85" height="40" as="geometry" />
        </mxCell>
        <mxCell id="02KtrUgMNeAOrGU4ToPw-56" style="edgeStyle=orthogonalEdgeStyle;rounded=0;orthogonalLoop=1;jettySize=auto;html=1;exitX=0.5;exitY=1;exitDx=0;exitDy=0;entryX=0.15;entryY=-0.067;entryDx=0;entryDy=0;entryPerimeter=0;" edge="1" parent="1" source="02KtrUgMNeAOrGU4ToPw-51" target="02KtrUgMNeAOrGU4ToPw-36">
          <mxGeometry relative="1" as="geometry" />
        </mxCell>
        <mxCell id="02KtrUgMNeAOrGU4ToPw-51" value="Nombre" style="ellipse;whiteSpace=wrap;html=1;" vertex="1" parent="1">
          <mxGeometry x="95" y="150" width="85" height="40" as="geometry" />
        </mxCell>
        <mxCell id="02KtrUgMNeAOrGU4ToPw-55" style="edgeStyle=orthogonalEdgeStyle;rounded=0;orthogonalLoop=1;jettySize=auto;html=1;exitX=0.5;exitY=1;exitDx=0;exitDy=0;" edge="1" parent="1" source="02KtrUgMNeAOrGU4ToPw-52" target="02KtrUgMNeAOrGU4ToPw-36">
          <mxGeometry relative="1" as="geometry" />
        </mxCell>
        <mxCell id="02KtrUgMNeAOrGU4ToPw-52" value="Edad" style="ellipse;whiteSpace=wrap;html=1;" vertex="1" parent="1">
          <mxGeometry x="187.5" y="140" width="85" height="40" as="geometry" />
        </mxCell>
        <mxCell id="02KtrUgMNeAOrGU4ToPw-54" style="edgeStyle=orthogonalEdgeStyle;rounded=0;orthogonalLoop=1;jettySize=auto;html=1;exitX=0.5;exitY=1;exitDx=0;exitDy=0;entryX=1;entryY=0.5;entryDx=0;entryDy=0;" edge="1" parent="1" source="02KtrUgMNeAOrGU4ToPw-53" target="02KtrUgMNeAOrGU4ToPw-36">
          <mxGeometry relative="1" as="geometry" />
        </mxCell>
        <mxCell id="02KtrUgMNeAOrGU4ToPw-53" value="Experiencia" style="ellipse;whiteSpace=wrap;html=1;" vertex="1" parent="1">
          <mxGeometry x="300" y="170" width="85" height="40" as="geometry" />
        </mxCell>
      </root>
    </mxGraphModel>
  </diagram>
</mxfile>
